<svg xmlns="http://www.w3.org/2000/svg" width="50.11" height="10.928" viewBox="0 0 50.11 10.928">
    <g data-name="02_Azuro-App_landing-page">
        <path d="M5.461 1.8a3.572 3.572 0 0 0-2.608 1.088 3.933 3.933 0 0 0-.8 1.182 3.591 3.591 0 0 0-.266 1.409 3.629 3.629 0 0 0 1.067 2.593 3.566 3.566 0 0 0 2.607 1.066 3.485 3.485 0 0 0 2.572-1.067 3.552 3.552 0 0 0 1.086-2.592 3.554 3.554 0 0 0-1.086-2.591A3.49 3.49 0 0 0 5.461 1.8m-.347 9.142a4.749 4.749 0 0 1-3.672-1.657A5.468 5.468 0 0 1 0 5.479a5.538 5.538 0 0 1 1.463-3.824A4.711 4.711 0 0 1 5.115.015 4.756 4.756 0 0 1 9.14 2.1L9.119.4l.043-.053h1.71l.049.044v10.155l-.044.052H9.168l-.051-.044v-1.7a4.7 4.7 0 0 1-4 2.09" transform="translate(0 -.015)" style="fill:#4135b8;fill-rule:evenodd"/>
        <path d="m33.534 11.141-.049-.044V9.408l6.685-6.735-6.636.027-.049-.045V.946l.044-.049h9.129l.042.035.005 1.709-6.69 6.732 6.636-.02.049.047.005 1.689-.049.052h-.005z" transform="translate(-20.894 -.56)" style="fill:#4135b8;fill-rule:evenodd"/>
        <path d="M66.089 11.488a3.814 3.814 0 0 1-2.955-1.369 4.485 4.485 0 0 1-1.154-3.09V.94l.044-.049h1.69l.049.044v6.1a2.493 2.493 0 0 0 .8 1.874 2.641 2.641 0 0 0 4.507-1.874V.94l.046-.049h1.708l.049.044V11.09l-.044.052h-1.708l-.051-.044v-1.034a3.691 3.691 0 0 1-2.979 1.425" transform="translate(-38.678 -.56)" style="fill:#4135b8;fill-rule:evenodd"/>
        <path d="m90.578 10.6-.049-.044L90.526.4l.044-.053h1.69l.049.044.005 1.054a3.681 3.681 0 0 1 3-1.426h.308a1.473 1.473 0 0 1 .342.039L96 1.943l-.061.047a4.064 4.064 0 0 0-.486-.141 2.508 2.508 0 0 0-.491-.047 2.572 2.572 0 0 0-1.875.776 2.574 2.574 0 0 0-.776 1.877v6.087l-.047.052h-.007z" transform="translate(-56.492 -.015)" style="fill:#4135b8;fill-rule:evenodd"/>
        <path d="M109.69 1.8a3.572 3.572 0 0 0-2.609 1.086 3.932 3.932 0 0 0-.8 1.182 3.59 3.59 0 0 0-.268 1.409 3.631 3.631 0 0 0 1.069 2.593 3.566 3.566 0 0 0 2.607 1.066 3.482 3.482 0 0 0 2.572-1.068 3.552 3.552 0 0 0 1.086-2.592 3.554 3.554 0 0 0-1.086-2.591A3.49 3.49 0 0 0 109.69 1.8m0 9.142a5.286 5.286 0 0 1-3.861-1.62 5.261 5.261 0 0 1-1.6-3.844 5.284 5.284 0 0 1 1.6-3.864 5.463 5.463 0 0 1 7.725 0 5.289 5.289 0 0 1 1.6 3.864 5.268 5.268 0 0 1-1.6 3.844 5.376 5.376 0 0 1-3.864 1.62" transform="translate(-65.043 -.015)" style="fill:#4135b8;fill-rule:evenodd"/>
    </g>
</svg>
