<svg xmlns="http://www.w3.org/2000/svg" width="127" height="120" viewBox="0 0 127 120">
    <g data-name="Group 10106">
        <path data-name="Rectangle 4246" d="M70 0h57v100a20 20 0 0 1-20 20H0V70A70 70 0 0 1 70 0z" style="fill:#e5fff8"/>
        <g data-name="Group 12587">
            <path data-name="Path 18468" d="M8039.717 1529h44.963v14.5s2.468 2.58 2.581 4.595 0 4.6 0 4.6h2.4V1566h-2.4v5.819h-3.771V1566h-43.773v5.819h-3.19V1566h-2.373l.91-14.021h1.463v-3.879s.833-3.849 3.19-3.849c.199.102 0-15.251 0-15.251z" transform="translate(-7990 -1481)" style="fill:#7febce"/>
            <g data-name="Group 12582">
                <g data-name="Group 12581">
                    <path data-name="Path 18465" d="M55.067 61.423h-.933v-2.942a4.918 4.918 0 0 0-2.8-4.488V38.865a.984.984 0 0 0-.56-.9 4.029 4.029 0 0 0 .56-2.044 3.738 3.738 0 1 0-7.467 0 4.033 4.033 0 0 0 .519 1.962H11.614a4.033 4.033 0 0 0 .519-1.962A3.832 3.832 0 0 0 8.4 32a3.832 3.832 0 0 0-3.733 3.923 4.029 4.029 0 0 0 .56 2.044.984.984 0 0 0-.56.9v15.126a4.918 4.918 0 0 0-2.8 4.488v2.942H.933A.958.958 0 0 0 0 62.4v13.735a.958.958 0 0 0 .933.981h.933v4.9A.958.958 0 0 0 2.8 83h3.733a.958.958 0 0 0 .933-.981v-4.9h41.067v4.9a.958.958 0 0 0 .933.981H53.2a.958.958 0 0 0 .933-.981v-4.9h.933a.958.958 0 0 0 .934-.984V62.4a.958.958 0 0 0-.933-.977zM47.6 33.961a1.964 1.964 0 1 1-1.867 1.962 1.916 1.916 0 0 1 1.867-1.962zm-39.2 0a1.964 1.964 0 0 1 0 3.923 1.964 1.964 0 0 1 0-3.923zm-1.867 5.885h42.934v13.731h-3.758a5.014 5.014 0 0 0 .958-2.942v-1.962A4.8 4.8 0 0 0 42 43.769h-7.467a4.8 4.8 0 0 0-4.667 4.9v1.961a5.014 5.014 0 0 0 .958 2.942h-5.648a5.014 5.014 0 0 0 .958-2.942v-1.957a4.8 4.8 0 0 0-4.667-4.9H14a4.8 4.8 0 0 0-4.667 4.9v1.961a5.014 5.014 0 0 0 .958 2.942H6.533zM44.8 48.673v1.961a2.874 2.874 0 0 1-2.8 2.943h-7.467a2.874 2.874 0 0 1-2.8-2.942v-1.962a2.874 2.874 0 0 1 2.8-2.942H42a2.874 2.874 0 0 1 2.8 2.942zm-20.533 0v1.961a2.874 2.874 0 0 1-2.8 2.942H14a2.874 2.874 0 0 1-2.8-2.942v-1.961a2.874 2.874 0 0 1 2.8-2.942h7.467a2.874 2.874 0 0 1 2.8 2.942zM3.733 58.481a2.874 2.874 0 0 1 2.8-2.942h42.934a2.874 2.874 0 0 1 2.8 2.942v2.942H3.733zM5.6 81.038H3.733v-3.923H5.6zm46.667 0H50.4v-3.923h1.867zm1.867-5.885H1.867V63.385h52.266z" transform="translate(41 8)" style="fill:#4b567e"/>
                </g>
            </g>
            <g data-name="Group 12584">
                <g data-name="Group 12583">
                    <path data-name="Path 18466" d="M36.667 352h-3.734a.982.982 0 0 0 0 1.962h3.733a.982.982 0 0 0 0-1.962z" transform="translate(12.733 -272.769)" style="fill:#4b567e"/>
                </g>
            </g>
            <g data-name="Group 12586">
                <g data-name="Group 12585">
                    <path data-name="Path 18467" d="M136.133 352h-39.2a.982.982 0 0 0 0 1.962h39.2a.982.982 0 0 0 0-1.962z" transform="translate(-43.8 -272.769)" style="fill:#4b567e"/>
                </g>
            </g>
        </g>
    </g>
</svg>
