<svg xmlns="http://www.w3.org/2000/svg" width="127" height="120" viewBox="0 0 127 120">
    <g data-name="Group 10106">
        <path data-name="Rectangle 4246" d="M70 0h57v100a20 20 0 0 1-20 20H0V70A70 70 0 0 1 70 0z" style="fill:#ffedef"/>
        <g data-name="Group 12561">
            <path data-name="Path 18409" d="M8415.225 804.728V786.94s4.345-9.493 10.465-.942c.291.894 0-4.928 0-4.928s2.463-4.436 6.858-4.436H8462s6.722-1.359 6.906 8.192a4.112 4.112 0 0 1 4.55-2.567 8.422 8.422 0 0 1 5.674 3.741v18.73z" transform="translate(-8383 -715)" style="fill:#ffa2ab"/>
            <path data-name="Path 18404" d="M128 264h2.667v2.465H128z" transform="translate(-80.333 -200.651)" style="fill:#4b567e"/>
            <path data-name="Path 18405" d="M176 264h2.667v2.465H176z" transform="translate(-120.333 -200.651)" style="fill:#4b567e"/>
            <path data-name="Path 18406" d="M240 264h2.667v2.465H240z" transform="translate(-173.667 -200.651)" style="fill:#4b567e"/>
            <path data-name="Path 18407" d="M288 264h2.667v2.465H288z" transform="translate(-213.667 -200.651)" style="fill:#4b567e"/>
            <path data-name="Path 18408" d="M94.667 116.977h-.959l.919-3.4a1.161 1.161 0 0 0-.243-1.057 1.375 1.375 0 0 0-1.051-.474h-1.508l1.285-1.781a1.177 1.177 0 0 0-.37-1.709 1.4 1.4 0 0 0-1.849.342l-.269.372a1.362 1.362 0 0 0-2.577 0l-.269-.372a1.4 1.4 0 0 0-1.849-.342 1.177 1.177 0 0 0-.37 1.709l1.285 1.781h-1.509a1.375 1.375 0 0 0-1.051.474 1.161 1.161 0 0 0-.243 1.057l.919 3.4h-2.291v-2.465a6.314 6.314 0 0 0-5.333-6.039V88.628C77.328 83.865 73.152 80.005 68 80h-2.667a9.133 9.133 0 0 0-9.249 7.486 7.61 7.61 0 0 0-6.751 7.3v1.233a1.286 1.286 0 0 0 1.333 1.233H64a1.286 1.286 0 0 0 1.333-1.233v-1.228a7.591 7.591 0 0 0-6.556-7.272 6.557 6.557 0 0 1 6.556-5.053H68a6.437 6.437 0 0 1 6.667 6.163v19.845A6.91 6.91 0 0 0 72 109.585v-.312c0-3.912-3.434-7.083-7.667-7.087h-30c-4.232 0-7.662 3.175-7.667 7.087v.312a7.118 7.118 0 0 0-6.981-.585A6.129 6.129 0 0 0 16 114.512v17.256A1.286 1.286 0 0 0 17.333 133h77.334a1.236 1.236 0 1 0 0-2.465h-4v-6.163h4A1.286 1.286 0 0 0 96 123.14v-4.93a1.286 1.286 0 0 0-1.333-1.233zm-32-22.186H52a5.35 5.35 0 0 1 10.667 0zm-36 24.651v11.093h-8v-16.023a3.858 3.858 0 0 1 4-3.7 3.858 3.858 0 0 1 4 3.7zm2.667 0a1.287 1.287 0 0 1 1.333-1.233h16A1.287 1.287 0 0 1 48 119.442v3.7H29.333zm40 11.093h-40V125.6h40zm0-7.4H50.667v-3.7A1.287 1.287 0 0 1 52 118.209h16a1.287 1.287 0 0 1 1.333 1.233zm0-8.628v1.445a4.274 4.274 0 0 0-1.334-.208H52a4.173 4.173 0 0 0-2.667.945 4.173 4.173 0 0 0-2.667-.945h-16a4.275 4.275 0 0 0-1.333.212v-6.683a4.827 4.827 0 0 1 5-4.622h30a4.827 4.827 0 0 1 5 4.622zM80 118.209v12.326h-8v-16.023a4.012 4.012 0 0 1 8 0zm9.33-3.7h2.3l-.667 2.465h-3.255l-.667-2.465zM88 130.535h-5.333v-6.163H88zm5.333-8.628H82.667v-2.465h10.666z" transform="translate(13 -45)" style="fill:#4b567e"/>
        </g>
    </g>
</svg>
