<svg xmlns="http://www.w3.org/2000/svg" width="127" height="120" viewBox="0 0 127 120">
    <g data-name="Group 10106">
        <path data-name="Rectangle 4246" d="M70 0h57v100a20 20 0 0 1-20 20H0V70A70 70 0 0 1 70 0z" style="fill:#f3f0ff"/>
        <g data-name="24-Tax">
            <path data-name="Path 18403" d="M8056.647 798.6c-.457.625-29.427-.193-29.427-.193v-3.79h2.627v-23.95l-1.8 2.7-2.816-2.986 23.67-17.846 25.936 20.043-1.827 2.183-2.623-2.728v10.846s-7.261.083-10.25 4.21-4.265 5.804-3.49 11.511z" transform="translate(-7985.199 -711.307)" style="fill:#d1c6ff"/>
            <path data-name="Path 18402" d="M47.882 31.2a16.684 16.684 0 1 0 16.685 16.682A16.685 16.685 0 0 0 47.882 31.2zm0 31.283a14.6 14.6 0 1 1 14.6-14.6 14.6 14.6 0 0 1-14.6 14.6zm-16.225-14.6a1.043 1.043 0 1 0 0-2.086h-5.673V28.07a1.042 1.042 0 0 0-1.043-1.043H14.513a1.042 1.042 0 0 0-1.043 1.043V45.8h-3.128V23.451L28.07 9.581l17.73 13.87V31.6a1.043 1.043 0 0 0 2.086 0v-6.518l1.642 1.284a1.042 1.042 0 0 0 1.463-.177l2.93-3.733a1.042 1.042 0 0 0-.178-1.464l-5.856-4.583V3.043A1.042 1.042 0 0 0 46.84 2H38.5a1.042 1.042 0 0 0-1.043 1.043v5.2l-6.88-5.378a4.172 4.172 0 0 0-5.013 0L2.4 20.992a1.042 1.042 0 0 0-.178 1.464l2.93 3.733a1.043 1.043 0 0 0 1.463.177l1.642-1.284V45.8H6.171a1.042 1.042 0 0 0-1.043 1.04v4.171a1.042 1.042 0 0 0 1.043 1.043h26.318a1.043 1.043 0 0 0 0-2.086H7.214v-2.086zm7.882-43.8H45.8v10.693L39.54 9.88zm-33.39 20L4.508 21.99 26.85 4.506a2.036 2.036 0 0 1 2.441 0l22.34 17.484-1.642 2.093L28.712 7.436a1.041 1.041 0 0 0-1.285 0zm9.406 5.03H23.9V45.8h-8.344zM31.2 38.5h-1.045a1.042 1.042 0 0 1-1.043-1.043V28.07a1.042 1.042 0 0 1 1.043-1.043h11.471a1.042 1.042 0 0 1 1.043 1.043v1.043a1.043 1.043 0 1 1-2.086 0H31.2v7.3a1.043 1.043 0 1 1 0 2.086zm11.99 8.34a3.65 3.65 0 1 0-3.65-3.65 3.65 3.65 0 0 0 3.65 3.65zm0-5.214a1.564 1.564 0 1 1-1.564 1.564 1.564 1.564 0 0 1 1.564-1.564zm9.385 7.3a3.65 3.65 0 1 0 3.65 3.65 3.65 3.65 0 0 0-3.65-3.65zm0 5.214a1.564 1.564 0 1 1 1.564-1.564 1.564 1.564 0 0 1-1.564 1.564zm2.3-11.776L42.363 54.876a1.043 1.043 0 1 1-1.475-1.476L53.4 40.888a1.043 1.043 0 1 1 1.475 1.475z" transform="translate(35.321 36.32)" style="fill:#4b567e"/>
        </g>
    </g>
</svg>
