<svg xmlns="http://www.w3.org/2000/svg" xmlns:xlink="http://www.w3.org/1999/xlink" width="94" height="94" viewBox="0 0 94 94"><defs><clipPath id="a"><path d="M0-682.665H53.553v53.553H0Z" transform="translate(0 682.665)" fill="#4b567e"/></clipPath></defs><g transform="translate(-101.604 39)"><g transform="translate(0 -14)"><path d="M50,0H94a0,0,0,0,1,0,0V74A20,20,0,0,1,74,94H0a0,0,0,0,1,0,0V50A50,50,0,0,1,50,0Z" transform="translate(101.604 -25)" fill="#ebffed"/><path d="M12075.349,1070.593v-24.66l16.67-10.683,17.85,10.683v9.779s-7.619-.561-11.174,3.159-3.047,11.722-3.047,11.722Z" transform="translate(-11945.396 -1028)" fill="#79e383"/><g transform="translate(121.245 684.973)"><g transform="translate(0 -682.665)"><g transform="translate(0 0)" clip-path="url(#a)"><g transform="translate(0.392 3.007)"><path d="M29.44-163.524a1.171,1.171,0,0,1-.6-.165L7.808-176.176l-21.033,12.487a1.177,1.177,0,0,1-1.613-.411,1.177,1.177,0,0,1,.411-1.613L7.207-178.556a1.177,1.177,0,0,1,1.2,0l21.633,12.844a1.177,1.177,0,0,1,.411,1.613A1.176,1.176,0,0,1,29.44-163.524Z" transform="translate(15.002 178.721)" fill="#4b567e"/></g></g></g><g transform="translate(5.168 -669.651)"><path d="M7.927,12.017h-21.75A1.177,1.177,0,0,1-15,10.84V-13.823A1.177,1.177,0,0,1-13.823-15a1.177,1.177,0,0,1,1.177,1.177V9.664H7.927a1.177,1.177,0,0,1,0,2.353Z" transform="translate(15 15)" fill="#4b567e"/></g><g transform="translate(38.883 -669.651)"><path d="M-13.823-137.746A1.177,1.177,0,0,1-15-138.923v-10.649a1.177,1.177,0,0,1,1.177-1.177,1.177,1.177,0,0,1,1.177,1.177v10.649A1.177,1.177,0,0,1-13.823-137.746Z" transform="translate(15 150.749)" fill="#4b567e"/></g><g transform="translate(18.9 -661.699)"><path d="M-7.572-12.647h-6.252A1.177,1.177,0,0,1-15-13.823,1.177,1.177,0,0,1-13.823-15h6.252A1.177,1.177,0,0,1-6.4-13.823,1.177,1.177,0,0,1-7.572-12.647Z" transform="translate(15 15)" fill="#4b567e"/></g><g transform="translate(16.808 -655.423)"><path d="M-146.847-21.246a1.177,1.177,0,0,1-1.177-1.177V-32.858a1.177,1.177,0,0,1,1.177-1.177h10.435a1.177,1.177,0,0,1,1.177,1.177v1.493a1.177,1.177,0,0,1-1.177,1.177,1.177,1.177,0,0,1-1.177-1.177v-.317h-8.082v9.258A1.177,1.177,0,0,1-146.847-21.246Z" transform="translate(148.024 34.035)" fill="#4b567e"/></g><g transform="translate(0 -682.665)"><g transform="translate(0 0)" clip-path="url(#a)"><g transform="translate(26.045 23.323)"><path d="M-264.066-145.229a11.406,11.406,0,0,1,11.393,11.393,11.406,11.406,0,0,1-11.393,11.393,11.406,11.406,0,0,1-11.393-11.393A11.406,11.406,0,0,1-264.066-145.229Zm0,20.432a9.05,9.05,0,0,0,9.039-9.04,9.05,9.05,0,0,0-9.039-9.039,9.05,9.05,0,0,0-9.039,9.039A9.05,9.05,0,0,0-264.066-124.8Z" transform="translate(275.459 145.229)" fill="#4b567e"/></g><g transform="translate(43.485 40.763)"><path d="M-6.482-5.305a1.173,1.173,0,0,1-.832-.345l-7.341-7.341a1.177,1.177,0,0,1,0-1.664,1.177,1.177,0,0,1,1.664,0L-5.65-7.314a1.177,1.177,0,0,1,0,1.664A1.173,1.173,0,0,1-6.482-5.305Z" transform="translate(15 15)" fill="#4b567e"/></g></g></g></g></g></g></svg>