<svg data-name="interior logo" xmlns="http://www.w3.org/2000/svg" width="55.275" height="18.26" viewBox="0 0 55.275 18.26">
    <path data-name="Path 17973" d="M0 61.089a1.841 1.841 0 0 1 1.813-1.821 1.752 1.752 0 0 1 1.224.54l-.405.553a1.192 1.192 0 0 0-.825-.378 1.107 1.107 0 0 0 0 2.213 1.2 1.2 0 0 0 .83-.4l.4.567a1.65 1.65 0 0 1-1.211.536A1.832 1.832 0 0 1 0 61.089z" transform="translate(0 -44.64)" style="fill:#1c2f59"/>
    <path data-name="Path 17974" d="M34.131 61.077a1.824 1.824 0 1 1 .535 1.277 1.819 1.819 0 0 1-.535-1.277zm2.922 0a1.111 1.111 0 1 0-.328.78 1.108 1.108 0 0 0 .328-.78z" transform="translate(-25.707 -44.628)" style="fill:#1c2f59"/>
    <path data-name="Path 17975" d="M73.324 59.2v3.581h-.7v-1.524l-1 1.463-1.008-1.463v1.522h-.7V59.2h.039l1.672 2.309 1.67-2.309z" transform="translate(-52.652 -44.587)" style="fill:#1c2f59"/>
    <path data-name="Path 17976" d="M107.184 59.55h1.226a1.18 1.18 0 1 1 0 2.358h-.524v1.133h-.7zm1.752 1.175a.5.5 0 0 0-.526-.479h-.524v.967h.524a.508.508 0 0 0 .526-.488z" transform="translate(-80.73 -44.852)" style="fill:#1c2f59"/>
    <path data-name="Path 17977" d="M143.063 62.291h-1.4l-.223.488h-.758l1.668-3.581h.022l1.672 3.581h-.762zm-.273-.6-.425-.934-.425.934z" transform="translate(-105.961 -44.587)" style="fill:#1c2f59"/>
    <path data-name="Path 17978" d="M179.958 59.359v3.568h-.033l-2.073-2.018v1.957h-.7v-3.56h.035l2.069 2.013v-1.96z" transform="translate(-133.427 -44.669)" style="fill:#1c2f59"/>
    <path data-name="Path 17979" d="m213.442 61.816-1.081-1.994h.793l.637 1.214.637-1.214h.794l-1.083 1.994v1.5h-.7z" transform="translate(-159.948 -45.057)" style="fill:#1c2f59"/>
    <path data-name="Path 17980" d="M136.891 12.094v9.159h2.431v-9.159z" transform="translate(-103.105 -9.109)" style="fill:#1c2f59"/>
    <path data-name="Path 17981" d="M23.593 11.8v9.263h-.772L18.112 16.5v4.477h-2.43v-9.252h.784l4.691 4.546V11.8z" transform="translate(-11.811 -8.831)" style="fill:#1c2f59"/>
    <path data-name="Path 17982" d="M55.947 14.366h-2.2v6.887h-2.429v-6.887h-2.2v-2.272h6.832z" transform="translate(-36.999 -9.109)" style="fill:#1c2f59"/>
    <path data-name="Path 17983" d="M80.533 14.355v1.279h2.907v2.028h-2.907v1.313h3.533v2.278h-5.935v-9.159h5.935v2.261z" transform="translate(-58.847 -9.109)" style="fill:#1c2f59"/>
    <path data-name="Path 17984" d="m109.712 21.253-2.45-3.977v3.977h-2.429l-.011-9.159h3.478a3.141 3.141 0 0 1 3.39 2.975 2.763 2.763 0 0 1-1.585 2.506l2.454 3.676zm-2.459-5.137.991.006a.923.923 0 1 0 0-1.842h-.991z" transform="translate(-78.951 -9.109)" style="fill:#1c2f59"/>
    <path data-name="Path 17985" d="M3.425 12.094a1.216 1.216 0 0 0-1.216 1.216v7.944H4.64v-7.945a1.215 1.215 0 0 0-1.215-1.216z" transform="translate(-1.664 -9.109)" style="fill:#1c2f59"/>
    <path data-name="Path 17986" d="M3.428 2.431a1.216 1.216 0 1 0-1.215-1.215 1.215 1.215 0 0 0 1.215 1.215z" transform="translate(-1.667)" style="fill:#1c2f59"/>
    <path data-name="Path 17987" d="M148.756 15.936a5.033 5.033 0 1 1 5.022 4.8 4.841 4.841 0 0 1-5.022-4.8zm7.593-.018a2.568 2.568 0 1 0-2.568 2.5 2.494 2.494 0 0 0 2.568-2.5z" transform="translate(-112.041 -8.361)" style="fill:#1c2f59"/>
    <path data-name="Path 17988" d="m196.376 21.253-2.448-3.977v3.977H191.5l-.011-9.159h3.476a3.141 3.141 0 0 1 3.39 2.975 2.763 2.763 0 0 1-1.584 2.506l2.454 3.676zm-2.459-5.137.991.006a.923.923 0 1 0 0-1.842h-.991z" transform="translate(-144.225 -9.109)" style="fill:#1c2f59"/>
</svg>
