<svg xmlns="http://www.w3.org/2000/svg" width="127" height="120" viewBox="0 0 127 120">
    <g data-name="Group 10106">
        <path data-name="Rectangle 4246" d="M70 0h57v100a20 20 0 0 1-20 20H0V70A70 70 0 0 1 70 0z" style="fill:#eff1ff"/>
        <path data-name="Path 18410" d="M8818.7 811.547v-25.682l-2.716 2.716-5-5 28.3-24.592 11.542 10.256v-5.328h8.985v12.266l5.112 6.333s-5.01 2.324-6.418 6.064-2.48 3.8.592 13.572c.072-.273-8.271 9.393-8.271 9.393z" transform="translate(-8773.513 -722.127)" style="fill:#b4bdff"/>
        <path d="M3.811 31.35a2.786 2.786 0 0 0 1.975 1h.178a2.8 2.8 0 0 0 1.329-.337v19.761A4.432 4.432 0 0 0 11.72 56.2h25.619l-7.3 8.445a7.028 7.028 0 1 0 10.627 9.2L55.714 56.43a16.261 16.261 0 0 0 20.1-19.446 2.424 2.424 0 0 0-1.787-1.808 2.382 2.382 0 0 0-2.389.763L64.667 44l-7.382-.135-1.2-7.29 6.972-8.063a2.4 2.4 0 0 0 .413-2.473 2.428 2.428 0 0 0-2.046-1.505 16.141 16.141 0 0 0-4.847.331l-5.4-4.915V8.855a2.838 2.838 0 0 0-2.834-2.835H42.73a2.838 2.838 0 0 0-2.83 2.835V9.7l-8.762-7.955a2.792 2.792 0 0 0-3.8 0L1.965 24.8a2.949 2.949 0 0 0-.251 4.065zm19.783 22.343v-13.8a1.254 1.254 0 0 1 1.254-1.255h8.778a1.254 1.254 0 0 1 1.254 1.255v13.8H23.594zm13.793 0v-13.8a3.763 3.763 0 0 0-3.762-3.764h-8.777a3.763 3.763 0 0 0-3.762 3.764v13.8H11.72a1.921 1.921 0 0 1-1.92-1.919V29.863l19.437-17.657 19.032 17.3c-.189.2-.391.376-.571.585a16.234 16.234 0 0 0-2.607 17.142l-5.584 6.459zM60 26.977c.346 0 .693.013 1.04.039l-7.226 8.36a1.255 1.255 0 0 0-.288 1.025l1.463 8.9a1.254 1.254 0 0 0 1.211 1.051l9.013.166a1.254 1.254 0 0 0 .973-.434l7.23-8.365A13.753 13.753 0 0 1 55.695 53.8a1.254 1.254 0 0 0-1.342.376L38.767 72.2a4.52 4.52 0 0 1-6.836-5.914l15.588-18.025a1.255 1.255 0 0 0 .173-1.38A13.757 13.757 0 0 1 60 26.978zM42.4 8.855a.335.335 0 0 1 .326-.326h5.618a.335.335 0 0 1 .326.326v8.821l-6.27-5.7zM3.657 26.644l25.374-23.05a.3.3 0 0 1 .416 0l24.342 22.122a16.349 16.349 0 0 0-3.643 2.111L30.083 9.587a1.253 1.253 0 0 0-1.687 0L7.669 28.414h-.007l-1.5 1.361a.322.322 0 0 1-.216.081.3.3 0 0 1-.218-.119l-2.1-2.492a.46.46 0 0 1 .029-.6z" transform="translate(35.34 31.355)" style="fill:#4b567e"/>
        <path d="m275.827 518.356-2.3 2.686a1.254 1.254 0 0 0 1.9 1.631l2.3-2.686a1.254 1.254 0 0 0-1.9-1.631z" transform="translate(-203.289 -421.756)" style="fill-rule:evenodd;fill:#4b567e"/>
    </g>
</svg>
