<svg xmlns="http://www.w3.org/2000/svg" width="127" height="120" viewBox="0 0 127 120">
    <g data-name="Group 10106">
        <path data-name="Rectangle 4246" d="M70 0h57v100a20 20 0 0 1-20 20H0V70A70 70 0 0 1 70 0z" style="fill:#fffaeb"/>
        <g data-name="Group 12546">
            <path data-name="Path 18411" d="M130.666 471.412h-43.13v-2.291a2.549 2.549 0 0 1 2.555-2.544h38.02a2.549 2.549 0 0 1 2.555 2.544v2.291z" transform="translate(-35.396 -375.615)" style="fill:#ffdc77"/>
        </g>
        <g data-name="Group 12548">
            <path data-name="Path 18413" d="M0 0h48.431v4.3H0z" transform="rotate(90 19.951 55.901)" style="fill:#ffdc77"/>
        </g>
        <g data-name="Group 12550">
            <path data-name="Path 18415" d="M31.845 250.135h-.363a10.312 10.312 0 0 1-10.335-10.289.754.754 0 0 1 .755-.752h19.523a.754.754 0 0 1 .755.752 10.312 10.312 0 0 1-10.336 10.289z" transform="translate(22.494 -177.121)" style="fill:#ffdc77"/>
        </g>
        <g data-name="Group 12551">
            <path data-name="Path 18416" d="M337.243 250.135h-.362a10.312 10.312 0 0 1-10.335-10.289.754.754 0 0 1 .755-.752h19.523a.754.754 0 0 1 .755.752 10.312 10.312 0 0 1-10.336 10.289z" transform="translate(-243.81 -177.121)" style="fill:#ffdc77"/>
        </g>
        <g data-name="Group 12554">
            <path data-name="Path 18419" d="M225.93 396.045h-10.347v-5.15a5.174 5.174 0 0 1 10.347 0z" transform="translate(-147.052 -305.082)" style="fill:#ffdc77"/>
        </g>
        <g data-name="Group 12556">
            <path data-name="Path 18421" d="M83.179 39.147H28.743a2.139 2.139 0 1 1 0-4.277h54.436a2.139 2.139 0 1 1 0 4.277z" transform="translate(17.744 1.08)" style="fill:#ffdc77"/>
        </g>
        <g data-name="Group 12558" transform="translate(68.051 32.46)">
            <ellipse data-name="Ellipse 555" cx="5.654" cy="5.628" rx="5.654" ry="5.628" style="fill:#ffdc77"/>
        </g>
        <path data-name="Path 18424" d="M73.99 29.514h-1.269L65.59 9.675h6.31a3.093 3.093 0 1 0 0-6.186H50.517a6.623 6.623 0 0 0-11.669 0H17.464a3.093 3.093 0 1 0 0 6.186h6.31l-7.132 19.839h-1.268a1.712 1.712 0 0 0-1.714 1.706 11.184 11.184 0 0 0 1.654 5.86.957.957 0 0 0 1.635-1 9.279 9.279 0 0 1-1.37-4.662h19.112a9.364 9.364 0 0 1-2.957 6.6 9.725 9.725 0 0 1-6.78 2.535c-6.485-.783-7.086-3.957-8.624-4.977a.961.961 0 0 0-1.33.266c-.293.438.134.832.266 1.323a11.851 11.851 0 0 0 16.7 3.137 11.336 11.336 0 0 0 4.17-5.857 11.192 11.192 0 0 0 .473-3.225 1.712 1.712 0 0 0-1.709-1.706h-1.273L26.5 9.675h12.347a6.645 6.645 0 0 0 2.728 2.716v36.656a6.1 6.1 0 0 0-3.025 5.26v4.2H25.672A3.51 3.51 0 0 0 22.159 62v2.291a.956.956 0 0 0 .958.954h43.13a.956.956 0 0 0 .958-.954V62a3.51 3.51 0 0 0-3.513-3.5h-5.169a.954.954 0 1 0 0 1.908h5.169a1.6 1.6 0 0 1 1.6 1.59v1.337H24.075V62a1.6 1.6 0 0 1 1.6-1.59h33.008a.954.954 0 1 0 0-1.908h-7.869v-4.2a6.1 6.1 0 0 0-3.025-5.26V12.39a6.645 6.645 0 0 0 2.728-2.716h12.351l-7.132 19.84h-1.269a1.712 1.712 0 0 0-1.714 1.706 11.281 11.281 0 0 0 11.295 11.243 12.442 12.442 0 0 0 3.749-.516 11.319 11.319 0 0 0 7.442-7.531 11.192 11.192 0 0 0 .461-3.196 1.711 1.711 0 0 0-1.71-1.706zm-42.4 0H18.678l6.457-17.962zm6.589-21.747H17.464a1.185 1.185 0 1 1 0-2.369h20.715a6.473 6.473 0 0 0 0 2.369zM48.9 54.306v4.2h-8.434v-4.2a4.215 4.215 0 0 1 8.431 0zm-5.405-5.988V13.057a6.653 6.653 0 0 0 2.38 0v35.261a6.143 6.143 0 0 0-2.38 0zm1.19-37.062a4.674 4.674 0 1 1 4.7-4.674 4.69 4.69 0 0 1-4.703 4.674zm6.5-3.49a6.474 6.474 0 0 0 0-2.369H71.9a1.185 1.185 0 1 1 0 2.369zm13.044 3.786 6.457 17.962H57.772zm.181 29h-.363a9.368 9.368 0 0 1-9.375-9.132h19.113a9.368 9.368 0 0 1-9.375 9.135z" transform="translate(26.734 30.367)" style="fill:#4b567e"/>
    </g>
</svg>
