<svg xmlns="http://www.w3.org/2000/svg" xmlns:xlink="http://www.w3.org/1999/xlink" width="79" height="14" viewBox="0 0 79 14"><defs><clipPath id="a"><rect width="79" height="14" transform="translate(0.146 4.672)"/></clipPath></defs><g transform="translate(-0.146 -4.672)" clip-path="url(#a)"><g transform="translate(0.742 5.776)"><path d="M1183.873,860.976v1.21h-.309a1.005,1.005,0,0,0-1.145,1.138c-.006.611,0,1.221,0,1.832a1.559,1.559,0,0,1-.966,1.645,1.585,1.585,0,0,1,.97,1.717c-.02.539,0,1.079,0,1.618v.245a1,1,0,0,0,1.1,1.04h.347v1.2a4.466,4.466,0,0,1-1.951-.207,1.747,1.747,0,0,1-1.073-1.7c-.021-.7,0-1.4-.009-2.107-.006-.858-.2-1.12-1.022-1.349-.234-.065-.335-.157-.318-.415s-.007-.441.33-.527c.814-.21,1-.485,1.01-1.323.006-.672,0-1.343,0-2.015a1.889,1.889,0,0,1,1.958-2c.346-.012.693,0,1.073,0" transform="translate(-1142.331 -860.766)" fill="#545454"/><path d="M1220.867,866.812a1.569,1.569,0,0,1-1-1.694c.021-.579.014-1.16,0-1.74-.019-.842-.363-1.173-1.2-1.18h-.24v-1.27a12.429,12.429,0,0,1,1.753.209,1.775,1.775,0,0,1,1.27,1.9c.01.661,0,1.323.006,1.985.009.841.186,1.073.981,1.314.1.029.193.062.3.1v.746l-.438.143a1,1,0,0,0-.835,1.112c-.011.681.006,1.364-.013,2.045a3.607,3.607,0,0,1-.118.873,1.652,1.652,0,0,1-1.4,1.208,14.785,14.785,0,0,1-1.508.117v-1.245h.417a.9.9,0,0,0,.977-.851c.054-.708.031-1.422.053-2.134a3,3,0,0,1,.082-.722,1.353,1.353,0,0,1,.909-.912" transform="translate(-1145.235 -860.762)" fill="#545454"/><path d="M1163.3,863.667h1.414c.044.338.089.675.139,1.058a6.6,6.6,0,0,1,.408-.529,2.7,2.7,0,0,1,3.682.006,3.756,3.756,0,0,1,1.034,3.105,3.84,3.84,0,0,1-.472,1.656,2.718,2.718,0,0,1-4.482.358c-.013-.022-.042-.034-.1-.079v3.785H1163.3Zm5.086,3.328c-.034-.294-.048-.549-.094-.8a1.627,1.627,0,0,0-1.558-1.459,1.581,1.581,0,0,0-1.721,1.288,3.5,3.5,0,0,0,0,1.782,1.668,1.668,0,0,0,3.244-.009,8.056,8.056,0,0,0,.13-.8" transform="translate(-1141.122 -860.952)" fill="#545454"/><path d="M1140.955,866.155v3.859h-1.621v-9.236a1.472,1.472,0,0,1,.2-.027c1.388,0,2.776-.009,4.164.008a3.077,3.077,0,0,1,1.756.542,2.533,2.533,0,0,1,.992,2.7,2.372,2.372,0,0,1-1.917,1.983,6.326,6.326,0,0,1-1.331.143c-.632.023-1.265,0-1.9.006-.108,0-.215.012-.344.019m.015-1.34c.04.016.057.031.076.031.612,0,1.224.013,1.836,0a5.3,5.3,0,0,0,.972-.071,1.273,1.273,0,0,0,1.073-1.326,1.221,1.221,0,0,0-1.084-1.338c-.946-.1-1.9-.083-2.875-.117Z" transform="translate(-1139.334 -860.748)" fill="#545454"/><path d="M1154.12,866.88a3.4,3.4,0,0,1,.7-2.251,3.219,3.219,0,0,1,2.709-1.152,3.057,3.057,0,0,1,3.167,2.5,4.2,4.2,0,0,1-.1,2.228,3.124,3.124,0,0,1-3.273,2.128,3.024,3.024,0,0,1-2.908-1.851,10.045,10.045,0,0,1-.384-1.582l.082-.019m5.116.057a9.156,9.156,0,0,0-.275-1.24,1.447,1.447,0,0,0-1.5-.967,1.468,1.468,0,0,0-1.5.974,3.326,3.326,0,0,0,0,2.409,1.667,1.667,0,0,0,3.012.019,9.16,9.16,0,0,0,.276-1.2" transform="translate(-1140.431 -860.949)" fill="#545454"/><path d="M1172.44,868.382a4,4,0,0,0,2.6.76,2.176,2.176,0,0,0,.623-.133.631.631,0,0,0,.444-.6.589.589,0,0,0-.425-.608c-.533-.166-1.079-.29-1.618-.439a5.507,5.507,0,0,1-.783-.249,1.755,1.755,0,0,1-.325-3.059,2.99,2.99,0,0,1,1.624-.56,4.141,4.141,0,0,1,2.647.66c.155.1.2.2.111.372-.138.27-.248.555-.344.776a13.755,13.755,0,0,0-1.634-.572,2.694,2.694,0,0,0-1.11.064.65.65,0,0,0-.535.657.607.607,0,0,0,.515.663c.535.162,1.087.261,1.625.414a3.9,3.9,0,0,1,.876.348,1.755,1.755,0,0,1,.2,2.854,3.272,3.272,0,0,1-2.194.608,4.707,4.707,0,0,1-2.484-.637c-.215-.133-.268-.255-.15-.486.129-.251.215-.522.34-.827" transform="translate(-1141.774 -860.951)" fill="#545454"/><path d="M1148.724,863.67h1.424c.045.348.091.693.148,1.135a1.988,1.988,0,0,1,1.454-1.235,4.093,4.093,0,0,1,.971-.024.31.31,0,0,1,.2.223c.021.416.011.832.011,1.245-.3-.038-.565-.1-.834-.1a1.574,1.574,0,0,0-1.746,1.681c-.012,1.09,0,2.179,0,3.268v.358h-1.627Z" transform="translate(-1140.034 -860.956)" fill="#545454"/><path d="M1192.987,871.226l-.632-1.652H1188.4l-.633,1.652h-1.717l3.383-8.612h1.885l3.383,8.612Zm-2.608-7.088-1.55,4.106h3.1Z" transform="translate(-1142.82 -860.887)" fill="#4b8bd5"/><path d="M1204.221,871.226v-6.391l-2.647,6.391h-.644l-2.634-6.391v6.391h-1.511v-8.612h2.13l2.337,5.668,2.35-5.668h2.13v8.612Z" transform="translate(-1143.621 -860.887)" fill="#4b8bd5"/><path d="M1208.377,866.914a4.344,4.344,0,0,1,4.518-4.454,3.894,3.894,0,0,1,3.461,1.936l-1.292.659a2.556,2.556,0,0,0-2.169-1.252,3.115,3.115,0,0,0,0,6.224,2.527,2.527,0,0,0,2.169-1.253l1.292.659a3.91,3.91,0,0,1-3.461,1.937,4.344,4.344,0,0,1-4.518-4.455" transform="translate(-1144.486 -860.874)" fill="#4b8bd5"/></g></g></svg>