<svg xmlns="http://www.w3.org/2000/svg" width="56.988" height="18.24" viewBox="0 0 56.988 18.24">
    <path data-name="Path 17989" d="M1.143 1.228H15.7a1.143 1.143 0 0 1 1.143 1.143v14.554a1.143 1.143 0 0 1-1.143 1.143H1.143A1.142 1.142 0 0 1 0 16.925V2.371a1.143 1.143 0 0 1 1.143-1.143" transform="translate(0 -.528)" style="fill-rule:evenodd"/>
    <path data-name="Path 17990" d="M5.47 16.751a2.789 2.789 0 0 1-2.713-2.8v-1.674a.77.77 0 1 1 1.54 0v1.679a1.244 1.244 0 0 0 1.2 1.257 1.227 1.227 0 0 0 1.252-1.2v-1.752a.77.77 0 0 1 1.541 0v1.733a2.772 2.772 0 0 1-2.782 2.76H5.47" transform="translate(-1.186 -4.941)" style="fill:#fff;fill-rule:evenodd"/>
    <path data-name="Path 17991" d="M9.976 16.735h.951a.562.562 0 0 0 .561-.561v-1.083a3.089 3.089 0 0 1-1.512 1.643m6.724-5.246a2.762 2.762 0 0 0-2 .855 2.737 2.737 0 0 0-3.01-.657v1.882a1.228 1.228 0 0 1 2.251.677v1.708a.787.787 0 0 0 .718.795.77.77 0 0 0 .818-.718v-1.742a1.247 1.247 0 0 1 1.2-1.258 1.228 1.228 0 0 1 1.252 1.2v1.728a.77.77 0 0 0 .769.771.77.77 0 0 0 .771-.77v-1.714a2.77 2.77 0 0 0-2.769-2.759" transform="translate(-4.29 -4.939)" style="fill:#fff;fill-rule:evenodd"/>
    <path data-name="Path 17992" d="M41.023 7.464h-.114a1.9 1.9 0 0 1-1.712.89 1.844 1.844 0 0 1-1.564-.673 2.841 2.841 0 0 1-.514-1.77V2.579h1.712v3.139a1.218 1.218 0 0 0 .217.748.788.788 0 0 0 .674.291 1 1 0 0 0 .884-.446 2.038 2.038 0 0 0 .3-1.163V2.579h1.712v5.592h-1.6v-.707zM43.9 2.579h1.6v.707h.114a1.988 1.988 0 0 1 .651-.628 1.853 1.853 0 0 1 1.472-.186 1.765 1.765 0 0 1 .38.168l-.445 1.526a1.488 1.488 0 0 0-.313-.127 1.683 1.683 0 0 0-.429-.045 1.148 1.148 0 0 0-.975.445 1.881 1.881 0 0 0-.342 1.161v2.572H43.9V2.579zm7.909 4.178a1.4 1.4 0 0 0 .952-.371 1.261 1.261 0 0 0 .3-.434 1.474 1.474 0 0 0 .108-.577 1.421 1.421 0 0 0-.108-.57 1.316 1.316 0 0 0-.73-.714 1.432 1.432 0 0 0-1.039 0 1.319 1.319 0 0 0-.73.713 1.421 1.421 0 0 0-.108.57 1.464 1.464 0 0 0 .108.577 1.259 1.259 0 0 0 .3.433 1.4 1.4 0 0 0 .952.371zM50.45 8.172h-1.6V0h1.712v2.4l-.114.8h.114a1.6 1.6 0 0 1 .6-.565 2.018 2.018 0 0 1 1.025-.235 2.531 2.531 0 0 1 1.028.217 2.651 2.651 0 0 1 .862.608 2.936 2.936 0 0 1 .587.942 3.486 3.486 0 0 1 0 2.42 2.944 2.944 0 0 1-.587.942 2.643 2.643 0 0 1-.862.608 2.525 2.525 0 0 1-1.028.217 2.009 2.009 0 0 1-1.02-.234 1.6 1.6 0 0 1-.6-.564h-.114v.622zm8.74-2.2a3.565 3.565 0 0 0-.519-.16 2.48 2.48 0 0 0-.532-.057 1.052 1.052 0 0 0-.684.189.6.6 0 0 0-.227.485.579.579 0 0 0 .217.473.872.872 0 0 0 .572.178 1.284 1.284 0 0 0 .507-.1 1.107 1.107 0 0 0 .37-.258 1.12 1.12 0 0 0 .3-.754zm0 1.7h-.113a2.516 2.516 0 0 1-.622.49 1.824 1.824 0 0 1-.895.194 2.263 2.263 0 0 1-.794-.137 1.984 1.984 0 0 1-.65-.388 1.788 1.788 0 0 1-.439-.608 1.891 1.891 0 0 1-.16-.788 1.716 1.716 0 0 1 .171-.77 1.833 1.833 0 0 1 .468-.6 2.115 2.115 0 0 1 .7-.388 2.7 2.7 0 0 1 .884-.137 4.374 4.374 0 0 1 .85.068 4.693 4.693 0 0 1 .6.16v-.153a.788.788 0 0 0-.3-.621 1.223 1.223 0 0 0-.817-.257 1.651 1.651 0 0 0-1.278.608l-1.164-.823a3.078 3.078 0 0 1 1.113-.85 3.418 3.418 0 0 1 1.4-.279A3.068 3.068 0 0 1 60.205 3a2.329 2.329 0 0 1 .7 1.855v3.31H59.19v-.5zm4.5-4.383h.11a1.9 1.9 0 0 1 1.712-.89 1.841 1.841 0 0 1 1.564.673 2.845 2.845 0 0 1 .514 1.77v3.33h-1.709V5.033a1.223 1.223 0 0 0-.218-.748.784.784 0 0 0-.673-.291 1 1 0 0 0-.884.445A2.05 2.05 0 0 0 63.8 5.6v2.572h-1.709V2.58h1.6v.707zm-26.523 6.9h1.6v.707h.113a1.929 1.929 0 0 1 .7-.657A2.083 2.083 0 0 1 40.587 10a1.778 1.778 0 0 1 1.064.3 1.7 1.7 0 0 1 .594.7 2.307 2.307 0 0 1 .718-.7 2.118 2.118 0 0 1 1.176-.3 2.171 2.171 0 0 1 .878.166 1.65 1.65 0 0 1 .622.462 2.017 2.017 0 0 1 .371.708 3.055 3.055 0 0 1 .127.9v3.538h-1.712v-3.205a1.144 1.144 0 0 0-.2-.7.683.683 0 0 0-.587-.268.935.935 0 0 0-.845.45 2.233 2.233 0 0 0-.286 1.2v2.522H40.8v-3.204a1.1 1.1 0 0 0-.211-.7.78.78 0 0 0-.657-.268.854.854 0 0 0-.788.45 2.391 2.391 0 0 0-.262 1.2v2.522h-1.716v-5.589zm12.9 4.177a1.284 1.284 0 0 0 .5-.1 1.324 1.324 0 0 0 .417-.274 1.238 1.238 0 0 0 .285-.434 1.526 1.526 0 0 0 .105-.577 1.5 1.5 0 0 0-.1-.57 1.313 1.313 0 0 0-.285-.434 1.292 1.292 0 0 0-2.109.433 1.51 1.51 0 0 0-.1.57 1.535 1.535 0 0 0 .1.577 1.238 1.238 0 0 0 .285.433 1.293 1.293 0 0 0 .907.371m0-4.359a3.228 3.228 0 0 1 1.2.222 2.944 2.944 0 0 1 .958.617 2.713 2.713 0 0 1 .628.942 3.335 3.335 0 0 1 0 2.4 2.717 2.717 0 0 1-.628.942 2.929 2.929 0 0 1-.958.616 3.367 3.367 0 0 1-2.409 0 2.916 2.916 0 0 1-.958-.616 2.719 2.719 0 0 1-.629-.942 3.342 3.342 0 0 1 0-2.4 2.719 2.719 0 0 1 .629-.942 2.934 2.934 0 0 1 .959-.617 3.221 3.221 0 0 1 1.2-.222m5.456.89h.114a1.9 1.9 0 0 1 1.71-.892 1.843 1.843 0 0 1 1.564.674 2.828 2.828 0 0 1 .511 1.769v3.333h-1.71v-3.139a1.216 1.216 0 0 0-.217-.748.783.783 0 0 0-.674-.291 1 1 0 0 0-.885.445 2.039 2.039 0 0 0-.3 1.165v2.568H53.92v-5.593h1.6v.706zm9.026 1.348a.988.988 0 0 0-.108-.3 1 1 0 0 0-.238-.291 1.287 1.287 0 0 0-.376-.217 1.371 1.371 0 0 0-.5-.086 1.31 1.31 0 0 0-1.247.89h2.466zm1.52 2.179a3.118 3.118 0 0 1-1.078 1.13 3.035 3.035 0 0 1-1.615.412 3.206 3.206 0 0 1-1.2-.222 2.936 2.936 0 0 1-.964-.622 2.829 2.829 0 0 1-.64-.942 3.041 3.041 0 0 1-.228-1.192 2.957 2.957 0 0 1 .861-2.094 3.1 3.1 0 0 1 .947-.644A2.888 2.888 0 0 1 63.324 10a3.072 3.072 0 0 1 1.227.227 2.478 2.478 0 0 1 .884.621 2.682 2.682 0 0 1 .538.925 3.482 3.482 0 0 1 .181 1.139c0 .062 0 .123-.006.183s-.009.107-.017.16a1 1 0 0 0-.011.148H62a1.226 1.226 0 0 0 .514.8 1.558 1.558 0 0 0 .867.251 1.413 1.413 0 0 0 .793-.205 1.53 1.53 0 0 0 .5-.524l1.391.693zm2.715 1.119-2.371-5.352h1.974l1.292 3.081h.114l1.232-3.081h1.928l-3.508 8.054H67.57z" transform="translate(-15.962)" style="fill-rule:evenodd"/>
</svg>
