<svg xmlns="http://www.w3.org/2000/svg" width="127" height="120" viewBox="0 0 127 120">
    <g data-name="Group 10106">
        <path data-name="Rectangle 4246" d="M70 0h57v100a20 20 0 0 1-20 20H0V70A70 70 0 0 1 70 0z" style="fill:#fffbe5"/>
        <g data-name="Group 12580">
            <path data-name="Path 18457" d="m52.99 72.358-3.081-13.182-8.494 4.443 4.548-8.36L32.975 52.1l12.988-3.3-4.548-8.14 8.494 4.548 3.081-13.1 3.112 13.1 8.022-4.548-4.1 7.542 12.767 3.9-12.766 3.157 4.1 7.47-8.025-3.553z" transform="translate(16.571 14.578)" style="fill:#ffec84"/>
            <path data-name="Subtraction 1" d="M29.985 59.966a29.991 29.991 0 0 1-11.672-57.61A29.991 29.991 0 0 1 41.655 57.61a29.8 29.8 0 0 1-11.67 2.356zm.525-54.7a25.256 25.256 0 0 0-9.83 48.509 25.256 25.256 0 1 0 9.829-48.514z" transform="translate(38 35)" style="fill:#ffec84"/>
            <path data-name="Path 18452" d="m106.258 102.042 12.977-2.85a.72.72 0 0 0 0-1.406l-13.007-2.909 4.426-7.782a.72.72 0 0 0-.979-.984l-7.843 4.4-2.847-12.961a.707.707 0 0 0-.7-.551.708.708 0 0 0-.7.548L94.67 90.488l-7.785-4.372a.719.719 0 0 0-.979.982l4.419 7.769-13 2.92a.72.72 0 0 0 0 1.406l12.977 2.85-4.4 7.843a.72.72 0 0 0 .985.979l7.77-4.419 2.92 12.986a.708.708 0 0 0 .7.547.707.707 0 0 0 .7-.551l2.861-13.023 7.828 4.456a.719.719 0 0 0 .985-.975zM80.8 98.481l12.71-2.855-.2.889a9.064 9.064 0 0 0 0 3.947l.181.805zm7.624 9.85 3.347-5.966 2.068.454.484 2.156zm5.435-14.26-2.068.465-3.356-5.9 5.9 3.311zm4.41 21.894-3.523-15.682a3.959 3.959 0 0 0 6.9.279zM95.76 98.489a2.521 2.521 0 1 1 2.521 2.521 2.521 2.521 0 0 1-2.521-2.521zm2.521-3.962a3.965 3.965 0 0 0-3.53 2.168l3.523-15.682 3.382 15.4a3.962 3.962 0 0 0-3.375-1.886zm17.47 3.955-12.78 2.806.191-.869a9.066 9.066 0 0 0 0-3.862l-.206-.936zm-7.628-9.846-3.363 5.912-2.145-.48-.458-2.086zm-5.953 16.3.461-2.1 2.156-.473 3.347 5.966z" transform="translate(-29.772 -32.98)" style="fill:#4b567e"/>
            <path data-name="Path 18453" d="M243.462 241.481a1.981 1.981 0 1 0-1.981 1.981 1.981 1.981 0 0 0 1.981-1.981zm-2.521 0a.54.54 0 1 1 .54.54.54.54 0 0 1-.54-.54z" transform="translate(-172.971 -175.971)" style="fill:#4b567e"/>
            <path data-name="Path 18454" d="M35.128 5a30.134 30.134 0 1 0 21.308 8.826A30.135 30.135 0 0 0 35.128 5zm.72 1.45A28.481 28.481 0 0 1 54.9 14.341l-2.566 2.566a24.989 24.989 0 0 0-16.487-6.842zm-1.441 0v3.617a24.989 24.989 0 0 0-16.487 6.84l-2.566-2.566a28.481 28.481 0 0 1 19.053-7.892zm-20.072 8.91 2.565 2.566a24.988 24.988 0 0 0-6.84 16.487H6.443a28.481 28.481 0 0 1 7.892-19.053zM6.443 35.854h3.617a24.988 24.988 0 0 0 6.84 16.487l-2.566 2.566a28.481 28.481 0 0 1-7.891-19.053zm27.964 27.964a28.482 28.482 0 0 1-19.053-7.892l2.566-2.566a24.989 24.989 0 0 0 16.487 6.84zM11.489 35.134a23.638 23.638 0 1 1 23.639 23.638 23.665 23.665 0 0 1-23.639-23.638zm24.359 28.684V60.2a24.989 24.989 0 0 0 16.488-6.84l2.564 2.566a28.481 28.481 0 0 1-19.053 7.892zm20.072-8.911-2.566-2.566A24.988 24.988 0 0 0 60.2 35.854h3.617a28.481 28.481 0 0 1-7.896 19.053zm4.28-20.494a24.988 24.988 0 0 0-6.841-16.487l2.566-2.566a28.481 28.481 0 0 1 7.892 19.053z" transform="translate(33.382 30.376)" style="fill:#4b567e"/>
            <path data-name="Path 18455" d="M78.886 115.414a.719.719 0 0 0 .862-.542 20.563 20.563 0 0 1 9.064-12.749.72.72 0 1 0-.766-1.22 22.014 22.014 0 0 0-9.7 13.649.72.72 0 0 0 .54.862z" transform="translate(-31.147 -53.916)" style="fill:#4b567e"/>
            <path data-name="Path 18456" d="M176.386 89.649a.717.717 0 0 0 .3-.068c.208-.1.42-.192.631-.281a.72.72 0 1 0-.564-1.326l-.676.3a.72.72 0 0 0 .305 1.373z" transform="translate(-116.8 -42.587)" style="fill:#4b567e"/>
        </g>
    </g>
</svg>
